<svg width="92" height="93" viewBox="0 0 92 93" fill="none" xmlns="http://www.w3.org/2000/svg">
<path d="M50.5455 76.1249C49.667 77.7698 47.9499 78.8749 46.0002 78.8749C44.0504 78.8749 42.3333 77.7698 41.4548 76.1249H41.4663H41.5028H41.5394H41.5761H41.6129H41.6497H41.6866H41.7236H41.7607H41.7978H41.835H41.8723H41.9096H41.947H41.9845H42.022H42.0597H42.0973H42.135H42.1728H42.2107H42.2486H42.2866H42.3246H42.3627H42.4008H42.439H42.4773H42.5156H42.554H42.5924H42.6309H42.6694H42.708H42.7466H42.7853H42.824H42.8628H42.9016H42.9405H42.9794H43.0184H43.0574H43.0964H43.1355H43.1747H43.2138H43.253H43.2923H43.3316H43.3709H43.4103H43.4497H43.4891H43.5286H43.5681H43.6076H43.6472H43.6868H43.7264H43.766H43.8057H43.8454H43.8852H43.9249H43.9647H44.0046H44.0444H44.0843H44.1241H44.164H44.204H44.2439H44.2839H44.3239H44.3639H44.4039H44.4439H44.484H44.524H44.5641H44.6042H44.6443H44.6844H44.7245H44.7647H44.8048H44.845H44.8851H44.9253H44.9654H45.0056H45.0458H45.086H45.1261H45.1663H45.2065H45.2467H45.2869H45.327H45.3672H45.4074H45.4476H45.4877H45.5279H45.568H45.6082H45.6483H45.6884H45.7285H45.7686H45.8087H45.8488H45.8889H45.9289H45.969H46.009H46.049H46.089H46.129H46.1689H46.2089H46.2488H46.2887H46.3285H46.3684H46.4082H46.448H46.4878H46.5275H46.5672H46.6069H46.6466H46.6862H46.7259H46.7654H46.805H46.8445H46.884H46.9234H46.9628H47.0022H47.0415H47.0808H47.1201H47.1593H47.1985H47.2376H47.2767H47.3158H47.3548H47.3938H47.4327H47.4716H47.5104H47.5492H47.588H47.6267H47.6653H47.7039H47.7425H47.781H47.8194H47.8578H47.8961H47.9344H47.9726H48.0108H48.0489H48.0869H48.1249H48.1629H48.2007H48.2386H48.2763H48.314H48.3516H48.3892H48.4267H48.4641H48.5014H48.5387H48.576H48.6131H48.6502H48.6872H48.7241H48.761H48.7978H48.8345H48.8712H48.9077H48.9442H48.9807H49.017H49.0532H49.0894H49.1255H49.1615H49.1975H49.2333H49.2691H49.3048H49.3404H49.3759H49.4113H49.4467H49.4819H49.5171H49.5521H49.5871H49.622H49.6568H49.6915H49.7261H49.7606H49.795H49.8293H49.8636H49.8977H49.9317H49.9656H49.9994H50.0332H50.0668H50.1003H50.1337H50.167H50.2002H50.2333H50.2663H50.2992H50.332H50.3646H50.3972H50.4296H50.4619H50.4942H50.5263H50.5455Z" stroke="#737373" stroke-width="5"/>
<path d="M72.8333 65.875V68.375C73.7531 68.375 74.5985 67.87 75.0345 67.0601C75.4706 66.2503 75.4267 65.2664 74.9203 64.4986L72.8333 65.875ZM65.1666 54.25H62.6666C62.6666 54.7393 62.8102 55.2179 63.0796 55.6264L65.1666 54.25ZM26.8333 54.25L28.9203 55.6264C29.1897 55.2179 29.3333 54.7393 29.3333 54.25H26.8333ZM19.1666 65.875L17.0796 64.4986C16.5732 65.2664 16.5294 66.2503 16.9654 67.0601C17.4014 67.87 18.2469 68.375 19.1666 68.375V65.875ZM29.3333 38.75C29.3333 29.4046 36.8206 21.875 46 21.875V16.875C34.0084 16.875 24.3333 26.6943 24.3333 38.75H29.3333ZM46 21.875C55.1793 21.875 62.6666 29.4046 62.6666 38.75H67.6666C67.6666 26.6943 57.9915 16.875 46 16.875V21.875ZM26.8333 68.375H65.1666V63.375H26.8333V68.375ZM65.1666 68.375H72.8333V63.375H65.1666V68.375ZM67.6666 54.25V38.75H62.6666V54.25H67.6666ZM74.9203 64.4986L67.2536 52.8736L63.0796 55.6264L70.7463 67.2514L74.9203 64.4986ZM24.3333 38.75V54.25H29.3333V38.75H24.3333ZM24.7463 52.8736L17.0796 64.4986L21.2536 67.2514L28.9203 55.6264L24.7463 52.8736ZM19.1666 68.375H26.8333V63.375H19.1666V68.375ZM48.5 19.375V7.75H43.5V19.375H48.5Z" fill="#737373"/>
</svg>
