<svg width="30" height="24" viewBox="0 0 30 24" fill="none" xmlns="http://www.w3.org/2000/svg">
<path d="M15.71 12.7096C16.6904 11.9383 17.406 10.8806 17.7572 9.68358C18.1085 8.4866 18.0779 7.2099 17.6698 6.0311C17.2617 4.85231 16.4963 3.83003 15.4801 3.10649C14.4639 2.38296 13.2474 1.99414 12 1.99414C10.7525 1.99414 9.53611 2.38296 8.51993 3.10649C7.50374 3.83003 6.73834 4.85231 6.33021 6.0311C5.92208 7.2099 5.89151 8.4866 6.24276 9.68358C6.59401 10.8806 7.3096 11.9383 8.29 12.7096C6.61007 13.3827 5.14428 14.499 4.04889 15.9396C2.95349 17.3801 2.26956 19.0909 2.07 20.8896C2.05555 21.021 2.06711 21.1538 2.10402 21.2807C2.14093 21.4075 2.20246 21.5259 2.28511 21.629C2.45202 21.8371 2.69478 21.9705 2.96 21.9996C3.22521 22.0288 3.49116 21.9514 3.69932 21.7845C3.90749 21.6176 4.04082 21.3749 4.07 21.1096C4.28958 19.1548 5.22168 17.3494 6.68822 16.0384C8.15475 14.7274 10.0529 14.0027 12.02 14.0027C13.9871 14.0027 15.8852 14.7274 17.3518 16.0384C18.8183 17.3494 19.7504 19.1548 19.97 21.1096C19.9972 21.3554 20.1144 21.5823 20.2991 21.7467C20.4838 21.911 20.7228 22.0011 20.97 21.9996H21.08C21.3421 21.9695 21.5817 21.8369 21.7466 21.6309C21.9114 21.4248 21.9881 21.162 21.96 20.8996C21.7595 19.0958 21.0719 17.3806 19.9708 15.9378C18.8698 14.4951 17.3969 13.3791 15.71 12.7096ZM12 11.9996C11.2089 11.9996 10.4355 11.765 9.77772 11.3255C9.11992 10.886 8.60723 10.2613 8.30448 9.53037C8.00173 8.79947 7.92251 7.9952 8.07686 7.21928C8.2312 6.44335 8.61216 5.73062 9.17157 5.17121C9.73098 4.6118 10.4437 4.23084 11.2196 4.0765C11.9956 3.92215 12.7998 4.00137 13.5307 4.30412C14.2616 4.60687 14.8863 5.11956 15.3259 5.77736C15.7654 6.43515 16 7.20851 16 7.99964C16 9.0605 15.5786 10.0779 14.8284 10.8281C14.0783 11.5782 13.0609 11.9996 12 11.9996Z" fill="#737373"/>
<path d="M24.1667 10.5H23.5833V8.5H24.75C24.9047 8.5 25.0531 8.55268 25.1625 8.64645C25.2719 8.74021 25.3333 8.86739 25.3333 9C25.3333 9.13261 25.3948 9.25979 25.5042 9.35355C25.6136 9.44732 25.762 9.5 25.9167 9.5C26.0714 9.5 26.2197 9.44732 26.3291 9.35355C26.4385 9.25979 26.5 9.13261 26.5 9C26.5 8.60218 26.3156 8.22064 25.9874 7.93934C25.6592 7.65804 25.2141 7.5 24.75 7.5H23.5833V6.5C23.5833 6.36739 23.5219 6.24021 23.4125 6.14645C23.3031 6.05268 23.1547 6 23 6C22.8453 6 22.6969 6.05268 22.5875 6.14645C22.4781 6.24021 22.4167 6.36739 22.4167 6.5V7.5H21.8333C21.2145 7.5 20.621 7.71071 20.1834 8.08579C19.7458 8.46086 19.5 8.96957 19.5 9.5C19.5 10.0304 19.7458 10.5391 20.1834 10.9142C20.621 11.2893 21.2145 11.5 21.8333 11.5H22.4167V13.5H21.25C21.0953 13.5 20.9469 13.4473 20.8375 13.3536C20.7281 13.2598 20.6667 13.1326 20.6667 13C20.6667 12.8674 20.6052 12.7402 20.4958 12.6464C20.3864 12.5527 20.238 12.5 20.0833 12.5C19.9286 12.5 19.7803 12.5527 19.6709 12.6464C19.5615 12.7402 19.5 12.8674 19.5 13C19.5 13.3978 19.6844 13.7794 20.0126 14.0607C20.3408 14.342 20.7859 14.5 21.25 14.5H22.4167V15.5C22.4167 15.6326 22.4781 15.7598 22.5875 15.8536C22.6969 15.9473 22.8453 16 23 16C23.1547 16 23.3031 15.9473 23.4125 15.8536C23.5219 15.7598 23.5833 15.6326 23.5833 15.5V14.5H24.1667C24.7855 14.5 25.379 14.2893 25.8166 13.9142C26.2542 13.5391 26.5 13.0304 26.5 12.5C26.5 11.9696 26.2542 11.4609 25.8166 11.0858C25.379 10.7107 24.7855 10.5 24.1667 10.5ZM22.4167 10.5H21.8333C21.5239 10.5 21.2272 10.3946 21.0084 10.2071C20.7896 10.0196 20.6667 9.76522 20.6667 9.5C20.6667 9.23478 20.7896 8.98043 21.0084 8.79289C21.2272 8.60536 21.5239 8.5 21.8333 8.5H22.4167V10.5ZM24.1667 13.5H23.5833V11.5H24.1667C24.4761 11.5 24.7728 11.6054 24.9916 11.7929C25.2104 11.9804 25.3333 12.2348 25.3333 12.5C25.3333 12.7652 25.2104 13.0196 24.9916 13.2071C24.7728 13.3946 24.4761 13.5 24.1667 13.5Z" fill="#737373"/>
</svg>
