<svg width="75" height="80" viewBox="0 0 75 80" fill="none" xmlns="http://www.w3.org/2000/svg">
<path d="M60.5319 36.3637L21.0354 36.3637C19.1526 36.3637 17.6263 37.9918 17.6263 40C17.6263 42.0083 19.1526 43.6364 21.0354 43.6364L60.5319 43.6364L56.1242 48.3377C54.7929 49.7576 54.7929 52.0601 56.1242 53.4803C57.4551 54.9004 59.6138 54.9004 60.9454 53.4803L71.1719 42.5719C71.251 42.4878 71.3256 42.3998 71.3965 42.3077C71.4138 42.2851 71.4285 42.2609 71.4454 42.2378C71.4974 42.1673 71.5485 42.0965 71.5954 42.0218C71.609 42 71.6201 41.977 71.6335 41.9549C71.6804 41.8769 71.7263 41.7981 71.7676 41.7159C71.7756 41.6997 71.7822 41.6824 71.7901 41.6662C71.8331 41.5772 71.8744 41.487 71.9106 41.394C71.9151 41.3826 71.9183 41.3704 71.9226 41.3588C71.9597 41.2609 71.994 41.1617 72.0231 41.0597C72.0269 41.0468 72.029 41.0335 72.0324 41.0204C72.0599 40.9203 72.0851 40.8192 72.1044 40.7157C72.1101 40.6849 72.1126 40.6531 72.1179 40.6221C72.1319 40.5363 72.146 40.4504 72.154 40.3629C72.1656 40.2429 72.1713 40.1217 72.1713 40C72.1713 39.8783 72.1656 39.7571 72.154 39.6369C72.146 39.5481 72.1315 39.4616 72.1176 39.375C72.1126 39.345 72.1101 39.3142 72.1044 39.2844C72.0849 39.1799 72.0599 39.0778 72.0322 38.9767C72.0288 38.9649 72.0267 38.9523 72.0233 38.9404C71.994 38.8378 71.9597 38.7377 71.9222 38.6388C71.9181 38.6281 71.9151 38.6167 71.9108 38.6061C71.8744 38.5123 71.8329 38.4216 71.7894 38.3321C71.7819 38.3164 71.7756 38.2999 71.7679 38.2841C71.726 38.2015 71.6799 38.122 71.6324 38.0432C71.6197 38.0218 71.6088 37.9993 71.5956 37.9784C71.5485 37.9035 71.4969 37.8323 71.4451 37.7615C71.4285 37.7387 71.4138 37.7147 71.3967 37.6924C71.3256 37.6005 71.251 37.5123 71.1722 37.4281L60.9456 26.5198C60.2799 25.8095 59.4074 25.4546 58.5349 25.4546C57.6624 25.4546 56.7899 25.8095 56.1244 26.5198C54.7931 27.9399 54.7931 30.2422 56.1244 31.6623L60.5319 36.3637Z" fill="#737373"/>
<path d="M27.8866 69.7457C37.1921 69.7457 45.8498 64.8215 51.0464 56.574C52.0964 54.9074 51.681 52.648 50.1185 51.5277C48.5557 50.4077 46.4378 50.8504 45.3873 52.5175C41.4598 58.7515 34.9175 62.4732 27.8866 62.4732C16.2696 62.4729 6.81823 52.3917 6.81823 40C6.81823 27.6082 16.2696 17.527 27.8866 17.527C34.8969 17.527 41.4285 21.232 45.3589 27.4375C46.4132 29.1018 48.5319 29.5391 50.0923 28.415C51.6523 27.2906 52.0628 25.0303 51.0087 23.3663C45.8085 15.1559 37.1648 10.2543 27.8866 10.2543C12.51 10.2543 4.57764e-05 23.598 4.57764e-05 40C4.57764e-05 56.4019 12.51 69.7457 27.8866 69.7457Z" fill="#737373"/>
</svg>
