<svg width="65" height="65" viewBox="0 0 65 65" fill="none" xmlns="http://www.w3.org/2000/svg">
<path d="M32.5001 21.6667C31.0636 21.6667 29.6859 22.2373 28.67 23.2532C27.6541 24.269 27.0834 25.6468 27.0834 27.0833C27.0891 28.0285 27.3421 28.9559 27.8174 29.7733C28.2924 30.5904 28.973 31.2691 29.7918 31.7417V40.625C29.7918 41.3433 30.0772 42.0323 30.585 42.5401C31.0928 43.0479 31.7818 43.3333 32.5001 43.3333C33.2183 43.3333 33.9073 43.0479 34.4151 42.5401C34.923 42.0323 35.2084 41.3433 35.2084 40.625V31.7417C36.0271 31.2691 36.7078 30.5904 37.1831 29.7733C37.6581 28.9559 37.9111 28.0285 37.9168 27.0833C37.9168 25.6468 37.3461 24.269 36.3302 23.2532C35.3143 22.2373 33.9366 21.6667 32.5001 21.6667ZM32.5001 5.41667C27.1435 5.41667 21.9072 7.00508 17.4534 9.98103C12.9996 12.957 9.52824 17.1868 7.47836 22.1357C5.42848 27.0844 4.89215 32.5301 5.93716 37.7837C6.98217 43.0373 9.56161 47.863 13.3493 51.6509C17.137 55.4385 21.9627 58.0179 27.2164 59.0631C32.47 60.1079 37.9157 59.5717 42.8643 57.5218C47.8133 55.4718 52.0431 52.0005 55.0191 47.5467C57.995 43.0928 59.5834 37.8565 59.5834 32.5C59.5834 28.9434 58.8828 25.4216 57.5218 22.1357C56.1609 18.8498 54.1659 15.8641 51.651 13.3492C49.136 10.8343 46.1504 8.83933 42.8643 7.47825C39.5786 6.11721 36.0567 5.41667 32.5001 5.41667ZM32.5001 54.1667C28.215 54.1667 24.0258 52.8959 20.4627 50.5153C16.8997 48.1344 14.1226 44.7506 12.4827 40.7916C10.8428 36.8325 10.4137 32.4759 11.2497 28.2731C12.0858 24.0701 14.1493 20.2095 17.1794 17.1794C20.2096 14.1492 24.0702 12.0857 28.2732 11.2497C32.476 10.4137 36.8326 10.8427 40.7916 12.4826C44.7507 14.1225 48.1345 16.8996 50.5154 20.4627C52.896 24.0257 54.1668 28.2146 54.1668 32.5C54.1668 38.2463 51.8842 43.7575 47.8209 47.8208C43.7575 51.8838 38.2464 54.1667 32.5001 54.1667Z" fill="#737373"/>
</svg>
