<svg width="80" height="80" viewBox="0 0 80 80" fill="none" xmlns="http://www.w3.org/2000/svg">
<path d="M68.2843 11.7157C60.7294 4.16077 50.6842 0 40 0C29.3152 0 19.2706 4.16077 11.7157 11.7157C4.16077 19.2706 0 29.3152 0 40C0 50.6842 4.16077 60.7294 11.7157 68.2843C19.2706 75.8392 29.3152 80 40 80C50.6842 80 60.7294 75.8392 68.2843 68.2843C75.8392 60.7294 80 50.6842 80 40C80 29.3152 75.8392 19.2706 68.2843 11.7157ZM20.0531 69.1229C21.7261 59.4904 30.0732 52.3853 40 52.3853C49.9274 52.3853 58.2739 59.4904 59.9469 69.1229C54.2676 73.0249 47.3962 75.3125 40 75.3125C32.6038 75.3125 25.7324 73.0249 20.0531 69.1229ZM27.2815 34.9792C27.2815 27.9657 32.9871 22.2607 40 22.2607C47.0129 22.2607 52.7185 27.9663 52.7185 34.9792C52.7185 41.9922 47.0129 47.6978 40 47.6978C32.9871 47.6978 27.2815 41.9922 27.2815 34.9792ZM64.007 65.8716C62.7454 61.3873 60.2399 57.3187 56.7279 54.1406C54.5734 52.1906 52.121 50.6519 49.4843 49.5673C54.2499 46.4587 57.4066 41.0809 57.4066 34.9792C57.4066 25.3815 49.5978 17.5732 40 17.5732C30.4022 17.5732 22.594 25.3815 22.594 34.9792C22.594 41.0809 25.7507 46.4587 30.5157 49.5673C27.8796 50.6519 25.4266 52.1899 23.2721 54.14C19.7607 57.3181 17.2546 61.3867 15.993 65.871C9.04419 59.4177 4.6875 50.2087 4.6875 40C4.6875 20.5286 20.5286 4.6875 40 4.6875C59.4714 4.6875 75.3125 20.5286 75.3125 40C75.3125 50.2094 70.9558 59.4183 64.007 65.8716Z" fill="#737373"/>
</svg>
