<svg width="65" height="65" viewBox="0 0 65 65" fill="none" xmlns="http://www.w3.org/2000/svg">
<mask id="path-1-inside-1" fill="white">
<path d="M20.3125 20.5062C16.3566 20.5062 12.6404 22.0512 9.82993 24.8484C7.01948 27.6588 5.4744 31.375 5.4744 35.3309C5.4744 39.2869 7.01948 43.0164 9.82993 45.8135C12.6271 48.6107 16.3566 50.1557 20.3125 50.1557C24.2685 50.1557 27.998 48.6107 30.7951 45.8135C33.6055 43.0031 35.1506 39.2869 35.1506 35.3309C35.1506 31.375 33.6055 27.6455 30.7951 24.8484C27.998 22.0512 24.2685 20.5062 20.3125 20.5062ZM28.917 43.9088C24.1619 48.6506 16.4498 48.6506 11.708 43.9088C9.4037 41.6178 8.13833 38.5543 8.13833 35.3176C8.13833 32.0809 9.4037 29.0307 11.708 26.7264C14.0789 24.3555 17.1957 23.1701 20.3125 23.1701C23.4293 23.1701 26.5461 24.3555 28.917 26.7264C31.2213 29.0174 32.4867 32.0809 32.4867 35.3176C32.4867 38.5543 31.2213 41.6045 28.917 43.9088Z"/>
<path d="M27.1189 33.9857C26.3863 33.9857 25.7869 34.585 25.7869 35.3176V39.3668H14.8514V35.3176C14.8514 34.585 14.252 33.9857 13.5195 33.9857C12.7869 33.9857 12.1875 34.585 12.1875 35.3176V40.6988C12.1875 41.4314 12.7869 42.0307 13.5195 42.0307H27.1189C27.8514 42.0307 28.4508 41.4314 28.4508 40.6988V35.3176C28.4508 34.585 27.8514 33.9857 27.1189 33.9857Z"/>
<path d="M20.3125 33.9191C22.5635 33.9191 24.3883 32.1342 24.3883 29.9498C24.3883 27.6988 22.5635 25.874 20.3125 25.874C18.0615 25.874 16.2367 27.6988 16.2367 29.9498C16.2367 32.1342 18.0615 33.9191 20.3125 33.9191ZM20.3125 28.5379C21.1117 28.5379 21.7244 29.1506 21.7244 29.9498C21.7244 30.6557 21.085 31.2551 20.3125 31.2551C19.5399 31.2551 18.9006 30.6557 18.9006 29.9498C18.9006 29.1506 19.5266 28.5379 20.3125 28.5379Z"/>
<path d="M63.668 10.9559H33.832V8.33197C33.832 7.59939 33.2326 7 32.5 7C31.7674 7 31.168 7.59939 31.168 8.33197V10.9559H1.33197C0.599385 10.9559 0 11.5553 0 12.2879V55.6168C0 56.3494 0.599385 56.9488 1.33197 56.9488H63.668C64.4006 56.9488 65 56.3494 65 55.6168V12.2879C65 11.5553 64.4006 10.9559 63.668 10.9559ZM62.3361 54.2848H2.66393V13.6199H31.168V16.4303H28.4375C27.7049 16.4303 27.1055 17.0297 27.1055 17.7623C27.1055 18.4949 27.7049 19.0943 28.4375 19.0943H36.5625C37.2951 19.0943 37.8945 18.4949 37.8945 17.7623C37.8945 17.0297 37.2951 16.4303 36.5625 16.4303H33.832V13.6199H62.3361V54.2848Z"/>
<path d="M40.625 29.8566H58.1803C58.9262 29.8566 59.5256 29.2572 59.5256 28.5246C59.5256 27.792 58.9262 27.1926 58.1937 27.1926H40.625C39.8924 27.1926 39.293 27.792 39.293 28.5246C39.293 29.2572 39.8924 29.8566 40.625 29.8566Z"/>
<path d="M40.625 36.6496H58.1803C58.9262 36.6496 59.5256 36.0502 59.5256 35.3176C59.5256 34.585 58.9262 33.9857 58.1937 33.9857H40.625C39.8924 33.9857 39.293 34.585 39.293 35.3176C39.293 36.0502 39.8924 36.6496 40.625 36.6496Z"/>
<path d="M40.625 43.4559H58.1803C58.9262 43.4559 59.5256 42.8566 59.5256 42.124C59.5256 41.3914 58.9262 40.792 58.1937 40.792H40.625C39.8924 40.792 39.293 41.3914 39.293 42.124C39.293 42.8566 39.8924 43.4559 40.625 43.4559Z"/>
</mask>
<path d="M20.3125 20.5062C16.3566 20.5062 12.6404 22.0512 9.82993 24.8484C7.01948 27.6588 5.4744 31.375 5.4744 35.3309C5.4744 39.2869 7.01948 43.0164 9.82993 45.8135C12.6271 48.6107 16.3566 50.1557 20.3125 50.1557C24.2685 50.1557 27.998 48.6107 30.7951 45.8135C33.6055 43.0031 35.1506 39.2869 35.1506 35.3309C35.1506 31.375 33.6055 27.6455 30.7951 24.8484C27.998 22.0512 24.2685 20.5062 20.3125 20.5062ZM28.917 43.9088C24.1619 48.6506 16.4498 48.6506 11.708 43.9088C9.4037 41.6178 8.13833 38.5543 8.13833 35.3176C8.13833 32.0809 9.4037 29.0307 11.708 26.7264C14.0789 24.3555 17.1957 23.1701 20.3125 23.1701C23.4293 23.1701 26.5461 24.3555 28.917 26.7264C31.2213 29.0174 32.4867 32.0809 32.4867 35.3176C32.4867 38.5543 31.2213 41.6045 28.917 43.9088Z" fill="#737373"/>
<path d="M27.1189 33.9857C26.3863 33.9857 25.7869 34.585 25.7869 35.3176V39.3668H14.8514V35.3176C14.8514 34.585 14.252 33.9857 13.5195 33.9857C12.7869 33.9857 12.1875 34.585 12.1875 35.3176V40.6988C12.1875 41.4314 12.7869 42.0307 13.5195 42.0307H27.1189C27.8514 42.0307 28.4508 41.4314 28.4508 40.6988V35.3176C28.4508 34.585 27.8514 33.9857 27.1189 33.9857Z" fill="#737373"/>
<path d="M20.3125 33.9191C22.5635 33.9191 24.3883 32.1342 24.3883 29.9498C24.3883 27.6988 22.5635 25.874 20.3125 25.874C18.0615 25.874 16.2367 27.6988 16.2367 29.9498C16.2367 32.1342 18.0615 33.9191 20.3125 33.9191ZM20.3125 28.5379C21.1117 28.5379 21.7244 29.1506 21.7244 29.9498C21.7244 30.6557 21.085 31.2551 20.3125 31.2551C19.5399 31.2551 18.9006 30.6557 18.9006 29.9498C18.9006 29.1506 19.5266 28.5379 20.3125 28.5379Z" fill="#737373"/>
<path d="M63.668 10.9559H33.832V8.33197C33.832 7.59939 33.2326 7 32.5 7C31.7674 7 31.168 7.59939 31.168 8.33197V10.9559H1.33197C0.599385 10.9559 0 11.5553 0 12.2879V55.6168C0 56.3494 0.599385 56.9488 1.33197 56.9488H63.668C64.4006 56.9488 65 56.3494 65 55.6168V12.2879C65 11.5553 64.4006 10.9559 63.668 10.9559ZM62.3361 54.2848H2.66393V13.6199H31.168V16.4303H28.4375C27.7049 16.4303 27.1055 17.0297 27.1055 17.7623C27.1055 18.4949 27.7049 19.0943 28.4375 19.0943H36.5625C37.2951 19.0943 37.8945 18.4949 37.8945 17.7623C37.8945 17.0297 37.2951 16.4303 36.5625 16.4303H33.832V13.6199H62.3361V54.2848Z" fill="#737373"/>
<path d="M40.625 29.8566H58.1803C58.9262 29.8566 59.5256 29.2572 59.5256 28.5246C59.5256 27.792 58.9262 27.1926 58.1937 27.1926H40.625C39.8924 27.1926 39.293 27.792 39.293 28.5246C39.293 29.2572 39.8924 29.8566 40.625 29.8566Z" fill="#737373"/>
<path d="M40.625 36.6496H58.1803C58.9262 36.6496 59.5256 36.0502 59.5256 35.3176C59.5256 34.585 58.9262 33.9857 58.1937 33.9857H40.625C39.8924 33.9857 39.293 34.585 39.293 35.3176C39.293 36.0502 39.8924 36.6496 40.625 36.6496Z" fill="#737373"/>
<path d="M40.625 43.4559H58.1803C58.9262 43.4559 59.5256 42.8566 59.5256 42.124C59.5256 41.3914 58.9262 40.792 58.1937 40.792H40.625C39.8924 40.792 39.293 41.3914 39.293 42.124C39.293 42.8566 39.8924 43.4559 40.625 43.4559Z" fill="#737373"/>
<path d="M9.82993 24.8484L5.59738 20.5957L5.59233 20.6007L5.58729 20.6057L9.82993 24.8484ZM9.82993 45.8135L14.0726 41.5709L14.0675 41.5658L14.0625 41.5608L9.82993 45.8135ZM30.7951 24.8484L26.5525 29.091L26.5575 29.096L26.5625 29.1011L30.7951 24.8484ZM28.917 43.9088L33.1537 48.1574L33.1597 48.1515L28.917 43.9088ZM11.708 43.9088L15.9506 39.6662L15.9445 39.66L15.9383 39.6539L11.708 43.9088ZM11.708 26.7264L15.9506 30.9691L15.9506 30.9691L11.708 26.7264ZM28.917 26.7264L24.6744 30.9691L24.6805 30.9752L24.6867 30.9814L28.917 26.7264ZM25.7869 39.3668V45.3668H31.7869V39.3668H25.7869ZM14.8514 39.3668H8.85143V45.3668H14.8514V39.3668ZM33.832 10.9559H27.832V16.9559H33.832V10.9559ZM31.168 10.9559V16.9559H37.168V10.9559H31.168ZM62.3361 54.2848V60.2848H68.3361V54.2848H62.3361ZM2.66393 54.2848H-3.33607V60.2848H2.66393V54.2848ZM2.66393 13.6199V7.61988H-3.33607V13.6199H2.66393ZM31.168 13.6199H37.168V7.61988H31.168V13.6199ZM31.168 16.4303V22.4303H37.168V16.4303H31.168ZM33.832 16.4303H27.832V22.4303H33.832V16.4303ZM33.832 13.6199V7.61988H27.832V13.6199H33.832ZM62.3361 13.6199H68.3361V7.61988H62.3361V13.6199ZM20.3125 14.5062C14.7569 14.5062 9.52272 16.6889 5.59738 20.5957L14.0625 29.1011C15.758 27.4135 17.9563 26.5062 20.3125 26.5062V14.5062ZM5.58729 20.6057C1.65873 24.5343 -0.525601 29.7737 -0.525601 35.3309H11.4744C11.4744 32.9763 12.3802 30.7833 14.0726 29.091L5.58729 20.6057ZM-0.525601 35.3309C-0.525601 40.88 1.65333 46.1409 5.59738 50.0662L14.0625 41.5608C12.3856 39.8919 11.4744 37.6938 11.4744 35.3309H-0.525601ZM5.58729 50.0562C9.50948 53.9784 14.765 56.1557 20.3125 56.1557V44.1557C17.9481 44.1557 15.7447 43.243 14.0726 41.5709L5.58729 50.0562ZM20.3125 56.1557C25.86 56.1557 31.1156 53.9784 35.0377 50.0562L26.5525 41.5709C24.8804 43.243 22.6769 44.1557 20.3125 44.1557V56.1557ZM35.0377 50.0562C38.9663 46.1276 41.1506 40.8882 41.1506 35.3309H29.1506C29.1506 37.6856 28.2448 39.8785 26.5525 41.5709L35.0377 50.0562ZM41.1506 35.3309C41.1506 29.7819 38.9717 24.521 35.0276 20.5957L26.5625 29.1011C28.2394 30.77 29.1506 32.9681 29.1506 35.3309H41.1506ZM35.0377 20.6057C31.1156 16.6835 25.86 14.5062 20.3125 14.5062V26.5062C22.6769 26.5062 24.8804 27.4189 26.5525 29.091L35.0377 20.6057ZM24.6803 39.6602C22.2637 42.0701 18.346 42.0615 15.9506 39.6662L7.46537 48.1515C14.5536 55.2397 26.0601 55.2311 33.1537 48.1574L24.6803 39.6602ZM15.9383 39.6539C14.7723 38.4946 14.1383 36.9648 14.1383 35.3176H2.13833C2.13833 40.1438 4.0351 44.7411 7.47768 48.1637L15.9383 39.6539ZM14.1383 35.3176C14.1383 33.6805 14.7657 32.154 15.9506 30.9691L7.46537 22.4838C4.04169 25.9075 2.13833 30.4814 2.13833 35.3176H14.1383ZM15.9506 30.9691C17.1461 29.7736 18.7146 29.1701 20.3125 29.1701V17.1701C15.6768 17.1701 11.0117 18.9375 7.46537 22.4838L15.9506 30.9691ZM20.3125 29.1701C21.9104 29.1701 23.4789 29.7736 24.6744 30.9691L33.1597 22.4838C29.6134 18.9375 24.9482 17.1701 20.3125 17.1701V29.1701ZM24.6867 30.9814C25.8527 32.1406 26.4867 33.6705 26.4867 35.3176H38.4867C38.4867 30.4914 36.5899 25.8942 33.1473 22.4715L24.6867 30.9814ZM26.4867 35.3176C26.4867 36.9548 25.8593 38.4812 24.6744 39.6662L33.1597 48.1515C36.5833 44.7278 38.4867 40.1539 38.4867 35.3176H26.4867ZM27.1189 27.9857C23.0726 27.9857 19.7869 31.2713 19.7869 35.3176H31.7869C31.7869 37.8988 29.7 39.9857 27.1189 39.9857V27.9857ZM19.7869 35.3176V39.3668H31.7869V35.3176H19.7869ZM25.7869 33.3668H14.8514V45.3668H25.7869V33.3668ZM20.8514 39.3668V35.3176H8.85143V39.3668H20.8514ZM20.8514 35.3176C20.8514 31.2713 17.5658 27.9857 13.5195 27.9857V39.9857C10.9383 39.9857 8.85143 37.8988 8.85143 35.3176H20.8514ZM13.5195 27.9857C9.47318 27.9857 6.1875 31.2713 6.1875 35.3176H18.1875C18.1875 37.8988 16.1006 39.9857 13.5195 39.9857V27.9857ZM6.1875 35.3176V40.6988H18.1875V35.3176H6.1875ZM6.1875 40.6988C6.1875 44.7451 9.47318 48.0307 13.5195 48.0307V36.0307C16.1006 36.0307 18.1875 38.1176 18.1875 40.6988H6.1875ZM13.5195 48.0307H27.1189V36.0307H13.5195V48.0307ZM27.1189 48.0307C31.1651 48.0307 34.4508 44.7451 34.4508 40.6988H22.4508C22.4508 38.1176 24.5377 36.0307 27.1189 36.0307V48.0307ZM34.4508 40.6988V35.3176H22.4508V40.6988H34.4508ZM34.4508 35.3176C34.4508 31.2713 31.1651 27.9857 27.1189 27.9857V39.9857C24.5377 39.9857 22.4508 37.8988 22.4508 35.3176H34.4508ZM20.3125 39.9191C25.7341 39.9191 30.3883 35.5892 30.3883 29.9498H18.3883C18.3883 28.6792 19.3929 27.9191 20.3125 27.9191V39.9191ZM30.3883 29.9498C30.3883 24.3851 25.8772 19.874 20.3125 19.874V31.874C19.2498 31.874 18.3883 31.0125 18.3883 29.9498H30.3883ZM20.3125 19.874C14.7477 19.874 10.2367 24.3851 10.2367 29.9498H22.2367C22.2367 31.0125 21.3752 31.874 20.3125 31.874V19.874ZM10.2367 29.9498C10.2367 35.5892 14.8908 39.9191 20.3125 39.9191V27.9191C21.2321 27.9191 22.2367 28.6792 22.2367 29.9498H10.2367ZM20.3125 34.5379C17.798 34.5379 15.7244 32.4643 15.7244 29.9498H27.7244C27.7244 25.8369 24.4253 22.5379 20.3125 22.5379V34.5379ZM15.7244 29.9498C15.7244 26.9311 18.1978 25.2551 20.3125 25.2551V37.2551C23.9723 37.2551 27.7244 34.3804 27.7244 29.9498H15.7244ZM20.3125 25.2551C22.4272 25.2551 24.9006 26.9311 24.9006 29.9498H12.9006C12.9006 34.3804 16.6527 37.2551 20.3125 37.2551V25.2551ZM24.9006 29.9498C24.9006 32.5014 22.8032 34.5379 20.3125 34.5379V22.5379C16.2501 22.5379 12.9006 25.7999 12.9006 29.9498H24.9006ZM63.668 4.95594H33.832V16.9559H63.668V4.95594ZM39.832 10.9559V8.33197H27.832V10.9559H39.832ZM39.832 8.33197C39.832 4.28566 36.5463 1 32.5 1V13C29.9189 13 27.832 10.9131 27.832 8.33197H39.832ZM32.5 1C28.4537 1 25.168 4.28568 25.168 8.33197H37.168C37.168 10.9131 35.0811 13 32.5 13V1ZM25.168 8.33197V10.9559H37.168V8.33197H25.168ZM31.168 4.95594H1.33197V16.9559H31.168V4.95594ZM1.33197 4.95594C-2.71432 4.95594 -6 8.24162 -6 12.2879H6C6 14.869 3.91309 16.9559 1.33197 16.9559V4.95594ZM-6 12.2879V55.6168H6V12.2879H-6ZM-6 55.6168C-6 59.6631 -2.71434 62.9488 1.33197 62.9488V50.9488C3.91311 50.9488 6 53.0357 6 55.6168H-6ZM1.33197 62.9488H63.668V50.9488H1.33197V62.9488ZM63.668 62.9488C67.7144 62.9488 71 59.6631 71 55.6168H59C59 53.0357 61.0869 50.9488 63.668 50.9488V62.9488ZM71 55.6168V12.2879H59V55.6168H71ZM71 12.2879C71 8.24164 67.7143 4.95594 63.668 4.95594V16.9559C61.0869 16.9559 59 14.869 59 12.2879H71ZM62.3361 48.2848H2.66393V60.2848H62.3361V48.2848ZM8.66393 54.2848V13.6199H-3.33607V54.2848H8.66393ZM2.66393 19.6199H31.168V7.61988H2.66393V19.6199ZM25.168 13.6199V16.4303H37.168V13.6199H25.168ZM31.168 10.4303H28.4375V22.4303H31.168V10.4303ZM28.4375 10.4303C24.3912 10.4303 21.1055 13.716 21.1055 17.7623H33.1055C33.1055 20.3434 31.0186 22.4303 28.4375 22.4303V10.4303ZM21.1055 17.7623C21.1055 21.8086 24.3912 25.0943 28.4375 25.0943V13.0943C31.0186 13.0943 33.1055 15.1812 33.1055 17.7623H21.1055ZM28.4375 25.0943H36.5625V13.0943H28.4375V25.0943ZM36.5625 25.0943C40.6088 25.0943 43.8945 21.8086 43.8945 17.7623H31.8945C31.8945 15.1811 33.9814 13.0943 36.5625 13.0943V25.0943ZM43.8945 17.7623C43.8945 13.716 40.6088 10.4303 36.5625 10.4303V22.4303C33.9814 22.4303 31.8945 20.3434 31.8945 17.7623H43.8945ZM36.5625 10.4303H33.832V22.4303H36.5625V10.4303ZM39.832 16.4303V13.6199H27.832V16.4303H39.832ZM33.832 19.6199H62.3361V7.61988H33.832V19.6199ZM56.3361 13.6199V54.2848H68.3361V13.6199H56.3361ZM40.625 35.8566H58.1803V23.8566H40.625V35.8566ZM58.1803 35.8566C62.201 35.8566 65.5256 32.6097 65.5256 28.5246H53.5256C53.5256 25.9047 55.6515 23.8566 58.1803 23.8566V35.8566ZM65.5256 28.5246C65.5256 24.4783 62.24 21.1926 58.1937 21.1926V33.1926C55.6125 33.1926 53.5256 31.1057 53.5256 28.5246H65.5256ZM58.1937 21.1926H40.625V33.1926H58.1937V21.1926ZM40.625 21.1926C36.5787 21.1926 33.293 24.4783 33.293 28.5246H45.293C45.293 31.1057 43.2061 33.1926 40.625 33.1926V21.1926ZM33.293 28.5246C33.293 32.5709 36.5787 35.8566 40.625 35.8566V23.8566C43.2061 23.8566 45.293 25.9435 45.293 28.5246H33.293ZM40.625 42.6496H58.1803V30.6496H40.625V42.6496ZM58.1803 42.6496C62.201 42.6496 65.5256 39.4027 65.5256 35.3176H53.5256C53.5256 32.6977 55.6515 30.6496 58.1803 30.6496V42.6496ZM65.5256 35.3176C65.5256 31.2713 62.24 27.9857 58.1937 27.9857V39.9857C55.6125 39.9857 53.5256 37.8987 53.5256 35.3176H65.5256ZM58.1937 27.9857H40.625V39.9857H58.1937V27.9857ZM40.625 27.9857C36.5787 27.9857 33.293 31.2713 33.293 35.3176H45.293C45.293 37.8987 43.2061 39.9857 40.625 39.9857V27.9857ZM33.293 35.3176C33.293 39.3639 36.5787 42.6496 40.625 42.6496V30.6496C43.2061 30.6496 45.293 32.7365 45.293 35.3176H33.293ZM40.625 49.4559H58.1803V37.4559H40.625V49.4559ZM58.1803 49.4559C62.201 49.4559 65.5256 46.2091 65.5256 42.124H53.5256C53.5256 39.504 55.6515 37.4559 58.1803 37.4559V49.4559ZM65.5256 42.124C65.5256 38.0777 62.24 34.792 58.1937 34.792V46.792C55.6125 46.792 53.5256 44.7051 53.5256 42.124H65.5256ZM58.1937 34.792H40.625V46.792H58.1937V34.792ZM40.625 34.792C36.5787 34.792 33.293 38.0777 33.293 42.124H45.293C45.293 44.7051 43.2061 46.792 40.625 46.792V34.792ZM33.293 42.124C33.293 46.1703 36.5787 49.4559 40.625 49.4559V37.4559C43.2061 37.4559 45.293 39.5429 45.293 42.124H33.293Z" fill="#737373" mask="url(#path-1-inside-1)"/>
</svg>
